<svg width="800" height="800" viewBox="0 0 800 800" fill="none" xmlns="http://www.w3.org/2000/svg">
<rect width="800" height="800" fill="#222222"/>
<path d="M147.592 283.652C147.016 284.036 146.317 284.335 145.496 284.548C144.675 284.761 143.869 284.868 143.08 284.868C141.267 284.868 139.869 284.393 138.888 283.444C137.907 282.495 137.416 281.273 137.416 279.78V269.732H133.544V267.652H137.416V263.828L140.104 263.508V267.652H145.928L145.608 269.732H140.104V279.748C140.104 280.687 140.349 281.401 140.84 281.892C141.341 282.383 142.168 282.628 143.32 282.628C143.949 282.628 144.531 282.553 145.064 282.404C145.597 282.255 146.093 282.063 146.552 281.828L147.592 283.652ZM153.564 284.5V282.436H156.188V269.716H153.564V267.652H158.236L158.732 271.636C159.382 270.249 160.172 269.177 161.1 268.42C162.028 267.663 163.254 267.284 164.78 267.284C165.249 267.284 165.665 267.321 166.028 267.396C166.401 267.46 166.78 267.545 167.164 267.652L166.38 270.052C166.028 269.956 165.708 269.887 165.42 269.844C165.132 269.791 164.801 269.764 164.428 269.764C163.137 269.764 162.028 270.223 161.1 271.14C160.172 272.057 159.43 273.444 158.876 275.3V282.436H162.3V284.5H153.564ZM164.572 273.348V269.684L164.844 267.652H167.164L166.78 273.348H164.572ZM186.607 267.652L180.687 284.612C180.292 285.753 179.791 286.799 179.183 287.748C178.586 288.697 177.802 289.481 176.831 290.1C175.871 290.729 174.65 291.119 173.167 291.268L172.751 289.124C173.914 288.932 174.831 288.639 175.503 288.244C176.175 287.849 176.703 287.343 177.087 286.724C177.482 286.105 177.828 285.364 178.127 284.5H177.231L171.343 267.652H174.223L179.055 282.452L183.823 267.652H186.607ZM222.198 257.764V259.876C221.419 259.876 220.71 259.956 220.07 260.116C219.441 260.265 218.95 260.527 218.598 260.9C218.257 261.273 218.113 261.785 218.166 262.436L218.838 268.996C218.934 269.892 218.881 270.633 218.678 271.22C218.475 271.807 218.134 272.265 217.654 272.596C217.185 272.927 216.582 273.161 215.846 273.3C216.593 273.428 217.206 273.652 217.686 273.972C218.166 274.281 218.502 274.729 218.694 275.316C218.886 275.892 218.934 276.655 218.838 277.604L218.166 284.164C218.113 284.825 218.257 285.343 218.598 285.716C218.939 286.089 219.43 286.351 220.07 286.5C220.71 286.649 221.419 286.724 222.198 286.724V288.836C221.302 288.836 220.443 288.756 219.622 288.596C218.801 288.447 218.075 288.185 217.446 287.812C216.817 287.439 216.342 286.927 216.022 286.276C215.702 285.636 215.595 284.825 215.702 283.844L216.342 277.764C216.427 277.028 216.358 276.409 216.134 275.908C215.921 275.407 215.451 275.028 214.726 274.772C214.011 274.505 212.939 274.372 211.51 274.372V272.228C212.939 272.228 214.011 272.1 214.726 271.844C215.451 271.588 215.921 271.209 216.134 270.708C216.358 270.207 216.427 269.593 216.342 268.868L215.702 262.756C215.595 261.775 215.702 260.964 216.022 260.324C216.342 259.673 216.811 259.161 217.43 258.788C218.059 258.415 218.785 258.153 219.606 258.004C220.438 257.844 221.302 257.764 222.198 257.764ZM291.3 315.3C291.3 316.964 291.444 318.457 291.732 319.78C292.02 321.092 292.447 322.297 293.012 323.396C293.577 324.484 294.287 325.519 295.14 326.5C296.004 327.492 297.007 328.495 298.148 329.508L296.74 330.98C295.012 329.561 293.529 328.111 292.292 326.628C291.065 325.145 290.121 323.492 289.46 321.668C288.809 319.844 288.484 317.721 288.484 315.3C288.484 312.868 288.809 310.74 289.46 308.916C290.121 307.092 291.065 305.439 292.292 303.956C293.529 302.473 295.012 301.028 296.74 299.62L298.148 301.092C296.996 302.116 295.988 303.124 295.124 304.116C294.271 305.097 293.561 306.132 292.996 307.22C292.431 308.297 292.004 309.497 291.716 310.82C291.439 312.132 291.3 313.625 291.3 315.3ZM316.088 315.3C316.088 313.625 315.944 312.132 315.656 310.82C315.378 309.497 314.957 308.297 314.392 307.22C313.826 306.132 313.112 305.097 312.248 304.116C311.394 303.124 310.392 302.116 309.24 301.092L310.648 299.62C312.386 301.028 313.869 302.473 315.096 303.956C316.322 305.439 317.261 307.092 317.912 308.916C318.573 310.74 318.904 312.868 318.904 315.3C318.904 317.721 318.573 319.844 317.912 321.668C317.261 323.492 316.322 325.145 315.096 326.628C313.869 328.111 312.386 329.561 310.648 330.98L309.24 329.508C310.381 328.495 311.378 327.492 312.232 326.5C313.096 325.519 313.81 324.484 314.376 323.396C314.941 322.297 315.368 321.092 315.656 319.78C315.944 318.457 316.088 316.964 316.088 315.3ZM135.752 341.764C136.648 341.764 137.507 341.844 138.328 342.004C139.149 342.153 139.875 342.415 140.504 342.788C141.133 343.161 141.608 343.673 141.928 344.324C142.259 344.964 142.365 345.775 142.248 346.756L141.608 352.868C141.523 353.593 141.613 354.207 141.88 354.708C142.157 355.209 142.659 355.588 143.384 355.844C144.109 356.1 145.128 356.228 146.44 356.228V358.372C145.139 358.372 144.12 358.505 143.384 358.772C142.659 359.028 142.157 359.407 141.88 359.908C141.613 360.409 141.523 361.028 141.608 361.764L142.248 367.844C142.355 368.825 142.248 369.636 141.928 370.276C141.608 370.927 141.133 371.439 140.504 371.812C139.885 372.185 139.16 372.447 138.328 372.596C137.507 372.756 136.648 372.836 135.752 372.836V370.724C136.531 370.724 137.235 370.649 137.864 370.5C138.504 370.351 139 370.089 139.352 369.716C139.704 369.343 139.848 368.825 139.784 368.164L139.112 361.604C139.016 360.655 139.069 359.892 139.272 359.316C139.475 358.729 139.837 358.281 140.36 357.972C140.893 357.663 141.592 357.449 142.456 357.332C141.624 357.193 140.941 356.953 140.408 356.612C139.885 356.271 139.517 355.807 139.304 355.22C139.091 354.633 139.027 353.892 139.112 352.996L139.784 346.436C139.848 345.785 139.704 345.273 139.352 344.9C139 344.527 138.509 344.265 137.88 344.116C137.251 343.956 136.541 343.876 135.752 343.876V341.764ZM180.207 366.548C181.05 366.548 181.834 366.409 182.559 366.132C183.295 365.855 183.972 365.503 184.591 365.076L185.903 366.836C185.167 367.465 184.282 367.961 183.247 368.324C182.212 368.687 181.199 368.868 180.207 368.868C178.532 368.868 177.103 368.511 175.919 367.796C174.746 367.071 173.85 366.057 173.231 364.756C172.612 363.444 172.303 361.908 172.303 360.148C172.303 358.463 172.612 356.953 173.231 355.62C173.86 354.276 174.762 353.22 175.935 352.452C177.119 351.684 178.554 351.3 180.239 351.3C181.316 351.3 182.324 351.465 183.263 351.796C184.212 352.116 185.082 352.601 185.871 353.252L184.559 355.044C183.844 354.543 183.124 354.169 182.399 353.924C181.684 353.668 180.954 353.54 180.207 353.54C178.756 353.54 177.562 354.084 176.623 355.172C175.684 356.26 175.215 357.919 175.215 360.148C175.215 361.641 175.428 362.863 175.855 363.812C176.292 364.751 176.884 365.444 177.631 365.892C178.388 366.329 179.247 366.548 180.207 366.548ZM203.843 364.82C203.843 365.492 203.955 365.983 204.179 366.292C204.403 366.601 204.749 366.831 205.219 366.98L204.562 368.868C203.837 368.772 203.203 368.543 202.659 368.18C202.115 367.807 201.72 367.247 201.475 366.5C200.867 367.279 200.109 367.871 199.203 368.276C198.296 368.671 197.293 368.868 196.195 368.868C194.509 368.868 193.181 368.393 192.211 367.444C191.24 366.495 190.755 365.236 190.755 363.668C190.755 361.929 191.432 360.596 192.786 359.668C194.141 358.74 196.099 358.276 198.659 358.276H201.139V356.868C201.139 355.652 200.781 354.793 200.067 354.292C199.363 353.78 198.381 353.524 197.123 353.524C196.568 353.524 195.917 353.593 195.171 353.732C194.424 353.86 193.613 354.079 192.739 354.388L192.035 352.356C193.069 351.972 194.04 351.7 194.947 351.54C195.853 351.38 196.717 351.3 197.539 351.3C199.64 351.3 201.213 351.791 202.259 352.772C203.315 353.743 203.843 355.065 203.843 356.74V364.82ZM196.883 366.82C197.715 366.82 198.509 366.612 199.267 366.196C200.024 365.769 200.648 365.183 201.139 364.436V360.1H198.707C196.851 360.1 195.539 360.42 194.771 361.06C194.013 361.7 193.635 362.559 193.635 363.636C193.635 364.681 193.901 365.476 194.435 366.02C194.979 366.553 195.795 366.82 196.883 366.82ZM224.342 367.652C223.766 368.036 223.067 368.335 222.246 368.548C221.425 368.761 220.619 368.868 219.83 368.868C218.017 368.868 216.619 368.393 215.638 367.444C214.657 366.495 214.166 365.273 214.166 363.78V353.732H210.294V351.652H214.166V347.828L216.854 347.508V351.652H222.678L222.358 353.732H216.854V363.748C216.854 364.687 217.099 365.401 217.59 365.892C218.091 366.383 218.918 366.628 220.07 366.628C220.699 366.628 221.281 366.553 221.814 366.404C222.347 366.255 222.843 366.063 223.302 365.828L224.342 367.652ZM237.77 366.548C238.612 366.548 239.396 366.409 240.122 366.132C240.858 365.855 241.535 365.503 242.154 365.076L243.465 366.836C242.73 367.465 241.844 367.961 240.81 368.324C239.775 368.687 238.762 368.868 237.77 368.868C236.095 368.868 234.666 368.511 233.482 367.796C232.308 367.071 231.412 366.057 230.794 364.756C230.175 363.444 229.866 361.908 229.866 360.148C229.866 358.463 230.175 356.953 230.794 355.62C231.423 354.276 232.324 353.22 233.498 352.452C234.682 351.684 236.116 351.3 237.802 351.3C238.879 351.3 239.887 351.465 240.826 351.796C241.775 352.116 242.644 352.601 243.434 353.252L242.122 355.044C241.407 354.543 240.687 354.169 239.962 353.924C239.247 353.668 238.516 353.54 237.77 353.54C236.319 353.54 235.124 354.084 234.186 355.172C233.247 356.26 232.778 357.919 232.778 360.148C232.778 361.641 232.991 362.863 233.418 363.812C233.855 364.751 234.447 365.444 235.194 365.892C235.951 366.329 236.81 366.548 237.77 366.548ZM252.029 344.612V353.956C252.69 353.071 253.501 352.409 254.461 351.972C255.432 351.524 256.413 351.3 257.405 351.3C259.048 351.3 260.248 351.737 261.005 352.612C261.762 353.487 262.141 354.703 262.141 356.26V368.5H259.453V356.324C259.453 355.311 259.218 354.575 258.749 354.116C258.28 353.647 257.544 353.412 256.541 353.412C255.901 353.412 255.293 353.556 254.717 353.844C254.141 354.132 253.624 354.489 253.165 354.916C252.706 355.343 252.328 355.78 252.029 356.228V368.5H249.341V344.9L252.029 344.612ZM291.3 357.3C291.3 358.964 291.444 360.457 291.732 361.78C292.02 363.092 292.447 364.297 293.012 365.396C293.577 366.484 294.287 367.519 295.14 368.5C296.004 369.492 297.007 370.495 298.148 371.508L296.74 372.98C295.012 371.561 293.529 370.111 292.292 368.628C291.065 367.145 290.121 365.492 289.46 363.668C288.809 361.844 288.484 359.721 288.484 357.3C288.484 354.868 288.809 352.74 289.46 350.916C290.121 349.092 291.065 347.439 292.292 345.956C293.529 344.473 295.012 343.028 296.74 341.62L298.148 343.092C296.996 344.116 295.988 345.124 295.124 346.116C294.271 347.097 293.561 348.132 292.996 349.22C292.431 350.297 292.004 351.497 291.716 352.82C291.439 354.132 291.3 355.625 291.3 357.3ZM354.463 357.3C354.463 355.625 354.319 354.132 354.031 352.82C353.753 351.497 353.332 350.297 352.767 349.22C352.201 348.132 351.487 347.097 350.623 346.116C349.769 345.124 348.767 344.116 347.615 343.092L349.023 341.62C350.761 343.028 352.244 344.473 353.471 345.956C354.697 347.439 355.636 349.092 356.287 350.916C356.948 352.74 357.279 354.868 357.279 357.3C357.279 359.721 356.948 361.844 356.287 363.668C355.636 365.492 354.697 367.145 353.471 368.628C352.244 370.111 350.761 371.561 349.023 372.98L347.615 371.508C348.756 370.495 349.753 369.492 350.607 368.5C351.471 367.519 352.185 366.484 352.751 365.396C353.316 364.297 353.743 363.092 354.031 361.78C354.319 360.457 354.463 358.964 354.463 357.3ZM394.886 341.764V343.876C394.107 343.876 393.398 343.956 392.758 344.116C392.128 344.265 391.638 344.527 391.286 344.9C390.944 345.273 390.8 345.785 390.854 346.436L391.526 352.996C391.622 353.892 391.568 354.633 391.366 355.22C391.163 355.807 390.822 356.265 390.342 356.596C389.872 356.927 389.27 357.161 388.534 357.3C389.28 357.428 389.894 357.652 390.374 357.972C390.854 358.281 391.19 358.729 391.382 359.316C391.574 359.892 391.622 360.655 391.526 361.604L390.854 368.164C390.8 368.825 390.944 369.343 391.286 369.716C391.627 370.089 392.118 370.351 392.758 370.5C393.398 370.649 394.107 370.724 394.886 370.724V372.836C393.99 372.836 393.131 372.756 392.31 372.596C391.488 372.447 390.763 372.185 390.134 371.812C389.504 371.439 389.03 370.927 388.71 370.276C388.39 369.636 388.283 368.825 388.39 367.844L389.03 361.764C389.115 361.028 389.046 360.409 388.822 359.908C388.608 359.407 388.139 359.028 387.414 358.772C386.699 358.505 385.627 358.372 384.198 358.372V356.228C385.627 356.228 386.699 356.1 387.414 355.844C388.139 355.588 388.608 355.209 388.822 354.708C389.046 354.207 389.115 353.593 389.03 352.868L388.39 346.756C388.283 345.775 388.39 344.964 388.71 344.324C389.03 343.673 389.499 343.161 390.118 342.788C390.747 342.415 391.472 342.153 392.294 342.004C393.126 341.844 393.99 341.764 394.886 341.764ZM181.119 393.652V408.372H185.871V410.5H173.231V408.372H178.431V395.78H173.391V393.652H181.119ZM178.975 385.764C179.572 385.764 180.047 385.945 180.399 386.308C180.762 386.671 180.943 387.113 180.943 387.636C180.943 388.18 180.762 388.639 180.399 389.012C180.047 389.375 179.572 389.556 178.975 389.556C178.41 389.556 177.946 389.375 177.583 389.012C177.22 388.639 177.039 388.18 177.039 387.636C177.039 387.113 177.22 386.671 177.583 386.308C177.946 385.945 178.41 385.764 178.975 385.764ZM201.731 386.532C202.637 386.532 203.459 386.612 204.195 386.772C204.931 386.932 205.629 387.156 206.291 387.444L205.427 389.444C204.883 389.209 204.307 389.033 203.699 388.916C203.091 388.799 202.461 388.74 201.811 388.74C200.637 388.74 199.752 388.969 199.155 389.428C198.568 389.887 198.275 390.591 198.275 391.54V394.964H203.987L203.699 397.076H198.275V410.5H195.587V397.076H191.571V394.964H195.587V391.604C195.587 390.559 195.853 389.657 196.387 388.9C196.931 388.143 197.667 387.561 198.595 387.156C199.523 386.74 200.568 386.532 201.731 386.532ZM233.738 399.3C233.738 400.964 233.882 402.457 234.17 403.78C234.458 405.092 234.884 406.297 235.45 407.396C236.015 408.484 236.724 409.519 237.578 410.5C238.442 411.492 239.444 412.495 240.586 413.508L239.178 414.98C237.45 413.561 235.967 412.111 234.73 410.628C233.503 409.145 232.559 407.492 231.898 405.668C231.247 403.844 230.922 401.721 230.922 399.3C230.922 396.868 231.247 394.74 231.898 392.916C232.559 391.092 233.503 389.439 234.73 387.956C235.967 386.473 237.45 385.028 239.178 383.62L240.586 385.092C239.434 386.116 238.426 387.124 237.562 388.116C236.708 389.097 235.999 390.132 235.434 391.22C234.868 392.297 234.442 393.497 234.154 394.82C233.876 396.132 233.738 397.625 233.738 399.3ZM315.432 393.652V408.372H320.184V410.5H307.544V408.372H312.744V395.78H307.704V393.652H315.432ZM313.288 385.764C313.885 385.764 314.36 385.945 314.712 386.308C315.074 386.671 315.256 387.113 315.256 387.636C315.256 388.18 315.074 388.639 314.712 389.012C314.36 389.375 313.885 389.556 313.288 389.556C312.722 389.556 312.258 389.375 311.896 389.012C311.533 388.639 311.352 388.18 311.352 387.636C311.352 387.113 311.533 386.671 311.896 386.308C312.258 385.945 312.722 385.764 313.288 385.764ZM326.091 410.5V393.652H328.379L328.587 395.988C329.27 395.124 330.123 394.463 331.147 394.004C332.182 393.535 333.184 393.3 334.155 393.3C335.808 393.3 337.008 393.737 337.755 394.612C338.512 395.487 338.891 396.703 338.891 398.26V410.5H336.203V400.244C336.203 399.092 336.139 398.164 336.011 397.46C335.883 396.745 335.616 396.228 335.211 395.908C334.806 395.577 334.176 395.412 333.323 395.412C332.662 395.412 332.038 395.556 331.451 395.844C330.875 396.132 330.358 396.495 329.899 396.932C329.451 397.359 329.078 397.791 328.779 398.228V410.5H326.091ZM431.213 399.3C431.213 397.625 431.069 396.132 430.781 394.82C430.503 393.497 430.082 392.297 429.517 391.22C428.951 390.132 428.237 389.097 427.373 388.116C426.519 387.124 425.517 386.116 424.365 385.092L425.773 383.62C427.511 385.028 428.994 386.473 430.221 387.956C431.447 389.439 432.386 391.092 433.037 392.916C433.698 394.74 434.029 396.868 434.029 399.3C434.029 401.721 433.698 403.844 433.037 405.668C432.386 407.492 431.447 409.145 430.221 410.628C428.994 412.111 427.511 413.561 425.773 414.98L424.365 413.508C425.506 412.495 426.503 411.492 427.357 410.5C428.221 409.519 428.935 408.484 429.501 407.396C430.066 406.297 430.493 405.092 430.781 403.78C431.069 402.457 431.213 400.964 431.213 399.3ZM471.636 383.764V385.876C470.857 385.876 470.148 385.956 469.508 386.116C468.878 386.265 468.388 386.527 468.036 386.9C467.694 387.273 467.55 387.785 467.604 388.436L468.276 394.996C468.372 395.892 468.318 396.633 468.116 397.22C467.913 397.807 467.572 398.265 467.092 398.596C466.622 398.927 466.02 399.161 465.284 399.3C466.03 399.428 466.644 399.652 467.124 399.972C467.604 400.281 467.94 400.729 468.132 401.316C468.324 401.892 468.372 402.655 468.276 403.604L467.604 410.164C467.55 410.825 467.694 411.343 468.036 411.716C468.377 412.089 468.868 412.351 469.508 412.5C470.148 412.649 470.857 412.724 471.636 412.724V414.836C470.74 414.836 469.881 414.756 469.06 414.596C468.238 414.447 467.513 414.185 466.884 413.812C466.254 413.439 465.78 412.927 465.46 412.276C465.14 411.636 465.033 410.825 465.14 409.844L465.78 403.764C465.865 403.028 465.796 402.409 465.572 401.908C465.358 401.407 464.889 401.028 464.164 400.772C463.449 400.505 462.377 400.372 460.948 400.372V398.228C462.377 398.228 463.449 398.1 464.164 397.844C464.889 397.588 465.358 397.209 465.572 396.708C465.796 396.207 465.865 395.593 465.78 394.868L465.14 388.756C465.033 387.775 465.14 386.964 465.46 386.324C465.78 385.673 466.249 385.161 466.868 384.788C467.497 384.415 468.222 384.153 469.044 384.004C469.876 383.844 470.74 383.764 471.636 383.764ZM348.831 450.036C348.831 449.513 348.953 449.044 349.199 448.628C349.444 448.201 349.775 447.865 350.191 447.62C350.617 447.364 351.097 447.236 351.631 447.236C352.175 447.236 352.66 447.364 353.087 447.62C353.513 447.865 353.849 448.201 354.095 448.628C354.34 449.044 354.463 449.513 354.463 450.036C354.463 450.559 354.34 451.039 354.095 451.476C353.849 451.903 353.513 452.244 353.087 452.5C352.66 452.745 352.175 452.868 351.631 452.868C351.097 452.868 350.617 452.745 350.191 452.5C349.775 452.244 349.444 451.903 349.199 451.476C348.953 451.039 348.831 450.559 348.831 450.036ZM425.613 441.3C425.613 442.964 425.757 444.457 426.045 445.78C426.333 447.092 426.759 448.297 427.325 449.396C427.89 450.484 428.599 451.519 429.453 452.5C430.317 453.492 431.319 454.495 432.461 455.508L431.053 456.98C429.325 455.561 427.842 454.111 426.605 452.628C425.378 451.145 424.434 449.492 423.773 447.668C423.122 445.844 422.797 443.721 422.797 441.3C422.797 438.868 423.122 436.74 423.773 434.916C424.434 433.092 425.378 431.439 426.605 429.956C427.842 428.473 429.325 427.028 431.053 425.62L432.461 427.092C431.309 428.116 430.301 429.124 429.437 430.116C428.583 431.097 427.874 432.132 427.309 433.22C426.743 434.297 426.317 435.497 426.029 436.82C425.751 438.132 425.613 439.625 425.613 441.3ZM446.336 434.884C446.336 435.545 446.096 436.1 445.616 436.548C445.147 436.996 444.576 437.22 443.904 437.22C443.221 437.22 442.651 436.996 442.192 436.548C441.733 436.1 441.504 435.545 441.504 434.884C441.504 434.617 441.536 434.329 441.6 434.02C441.664 433.7 441.819 433.284 442.064 432.772L444.656 427.252H446.784L445.472 433.124C445.739 433.305 445.947 433.556 446.096 433.876C446.256 434.185 446.336 434.521 446.336 434.884ZM453.248 434.884C453.248 435.545 453.003 436.1 452.512 436.548C452.032 436.996 451.467 437.22 450.816 437.22C450.155 437.22 449.589 436.996 449.12 436.548C448.651 436.1 448.416 435.545 448.416 434.884C448.416 434.617 448.448 434.329 448.512 434.02C448.576 433.7 448.731 433.284 448.976 432.772L451.616 427.252H453.696L452.4 433.124C452.656 433.305 452.859 433.556 453.008 433.876C453.168 434.185 453.248 434.521 453.248 434.884ZM576.233 429.636C576.233 428.975 576.473 428.42 576.953 427.972C577.443 427.513 578.014 427.284 578.665 427.284C579.326 427.284 579.897 427.513 580.377 427.972C580.857 428.42 581.097 428.975 581.097 429.636C581.097 429.924 581.054 430.217 580.969 430.516C580.883 430.804 580.713 431.209 580.457 431.732L577.865 437.252H575.785L577.049 431.38C576.803 431.188 576.606 430.937 576.457 430.628C576.307 430.319 576.233 429.988 576.233 429.636ZM583.145 429.636C583.145 428.975 583.385 428.42 583.865 427.972C584.355 427.513 584.926 427.284 585.577 427.284C586.249 427.284 586.819 427.513 587.289 427.972C587.769 428.42 588.009 428.975 588.009 429.636C588.009 429.924 587.971 430.217 587.897 430.516C587.822 430.804 587.662 431.209 587.417 431.732L584.793 437.252H582.697L583.993 431.38C583.737 431.188 583.529 430.937 583.369 430.628C583.219 430.319 583.145 429.988 583.145 429.636ZM603.9 441.3C603.9 439.625 603.756 438.132 603.468 436.82C603.191 435.497 602.769 434.297 602.204 433.22C601.639 432.132 600.924 431.097 600.06 430.116C599.207 429.124 598.204 428.116 597.052 427.092L598.46 425.62C600.199 427.028 601.681 428.473 602.908 429.956C604.135 431.439 605.073 433.092 605.724 434.916C606.385 436.74 606.716 438.868 606.716 441.3C606.716 443.721 606.385 445.844 605.724 447.668C605.073 449.492 604.135 451.145 602.908 452.628C601.681 454.111 600.199 455.561 598.46 456.98L597.052 455.508C598.193 454.495 599.191 453.492 600.044 452.5C600.908 451.519 601.623 450.484 602.188 449.396C602.753 448.297 603.18 447.092 603.468 445.78C603.756 444.457 603.9 442.964 603.9 441.3ZM174.127 467.764C175.023 467.764 175.882 467.844 176.703 468.004C177.524 468.153 178.25 468.415 178.879 468.788C179.508 469.161 179.983 469.673 180.303 470.324C180.634 470.964 180.74 471.775 180.623 472.756L179.983 478.868C179.898 479.593 179.988 480.207 180.255 480.708C180.532 481.209 181.034 481.588 181.759 481.844C182.484 482.1 183.503 482.228 184.815 482.228V484.372C183.514 484.372 182.495 484.505 181.759 484.772C181.034 485.028 180.532 485.407 180.255 485.908C179.988 486.409 179.898 487.028 179.983 487.764L180.623 493.844C180.73 494.825 180.623 495.636 180.303 496.276C179.983 496.927 179.508 497.439 178.879 497.812C178.26 498.185 177.535 498.447 176.703 498.596C175.882 498.756 175.023 498.836 174.127 498.836V496.724C174.906 496.724 175.61 496.649 176.239 496.5C176.879 496.351 177.375 496.089 177.727 495.716C178.079 495.343 178.223 494.825 178.159 494.164L177.487 487.604C177.391 486.655 177.444 485.892 177.647 485.316C177.85 484.729 178.212 484.281 178.735 483.972C179.268 483.663 179.967 483.449 180.831 483.332C179.999 483.193 179.316 482.953 178.783 482.612C178.26 482.271 177.892 481.807 177.679 481.22C177.466 480.633 177.402 479.892 177.487 478.996L178.159 472.436C178.223 471.785 178.079 471.273 177.727 470.9C177.375 470.527 176.884 470.265 176.255 470.116C175.626 469.956 174.916 469.876 174.127 469.876V467.764ZM135.752 509.764C136.648 509.764 137.507 509.844 138.328 510.004C139.149 510.153 139.875 510.415 140.504 510.788C141.133 511.161 141.608 511.673 141.928 512.324C142.259 512.964 142.365 513.775 142.248 514.756L141.608 520.868C141.523 521.593 141.613 522.207 141.88 522.708C142.157 523.209 142.659 523.588 143.384 523.844C144.109 524.1 145.128 524.228 146.44 524.228V526.372C145.139 526.372 144.12 526.505 143.384 526.772C142.659 527.028 142.157 527.407 141.88 527.908C141.613 528.409 141.523 529.028 141.608 529.764L142.248 535.844C142.355 536.825 142.248 537.636 141.928 538.276C141.608 538.927 141.133 539.439 140.504 539.812C139.885 540.185 139.16 540.447 138.328 540.596C137.507 540.756 136.648 540.836 135.752 540.836V538.724C136.531 538.724 137.235 538.649 137.864 538.5C138.504 538.351 139 538.089 139.352 537.716C139.704 537.343 139.848 536.825 139.784 536.164L139.112 529.604C139.016 528.655 139.069 527.892 139.272 527.316C139.475 526.729 139.837 526.281 140.36 525.972C140.893 525.663 141.592 525.449 142.456 525.332C141.624 525.193 140.941 524.953 140.408 524.612C139.885 524.271 139.517 523.807 139.304 523.22C139.091 522.633 139.027 521.892 139.112 520.996L139.784 514.436C139.848 513.785 139.704 513.273 139.352 512.9C139 512.527 138.509 512.265 137.88 512.116C137.251 511.956 136.541 511.876 135.752 511.876V509.764Z" fill="#B1B1B1"/>
<path d="M178.319 324.644C179.61 324.644 180.628 324.404 181.375 323.924C182.132 323.433 182.511 322.783 182.511 321.972C182.511 321.46 182.415 321.017 182.223 320.644C182.042 320.271 181.663 319.935 181.087 319.636C180.511 319.337 179.626 319.039 178.431 318.74C177.268 318.452 176.255 318.121 175.391 317.748C174.538 317.364 173.871 316.868 173.391 316.26C172.922 315.652 172.687 314.863 172.687 313.892C172.687 312.943 172.954 312.127 173.487 311.444C174.031 310.751 174.783 310.223 175.743 309.86C176.703 309.487 177.818 309.3 179.087 309.3C180.442 309.3 181.62 309.481 182.623 309.844C183.636 310.196 184.495 310.633 185.199 311.156L184.015 312.98C183.375 312.543 182.671 312.185 181.903 311.908C181.135 311.62 180.207 311.476 179.119 311.476C177.796 311.476 176.858 311.684 176.303 312.1C175.748 312.505 175.471 313.033 175.471 313.684C175.471 314.175 175.604 314.585 175.871 314.916C176.148 315.236 176.612 315.529 177.263 315.796C177.914 316.052 178.81 316.335 179.951 316.644C181.05 316.932 182.004 317.279 182.815 317.684C183.636 318.089 184.276 318.623 184.735 319.284C185.194 319.945 185.423 320.799 185.423 321.844C185.423 323.039 185.082 324.009 184.399 324.756C183.716 325.492 182.831 326.031 181.743 326.372C180.666 326.703 179.524 326.868 178.319 326.868C176.794 326.868 175.492 326.649 174.415 326.212C173.348 325.764 172.452 325.225 171.727 324.596L173.263 322.82C173.924 323.364 174.682 323.807 175.535 324.148C176.399 324.479 177.327 324.644 178.319 324.644ZM199.395 324.548C200.237 324.548 201.021 324.409 201.747 324.132C202.483 323.855 203.16 323.503 203.779 323.076L205.09 324.836C204.355 325.465 203.469 325.961 202.435 326.324C201.4 326.687 200.387 326.868 199.395 326.868C197.72 326.868 196.291 326.511 195.107 325.796C193.933 325.071 193.037 324.057 192.419 322.756C191.8 321.444 191.491 319.908 191.491 318.148C191.491 316.463 191.8 314.953 192.419 313.62C193.048 312.276 193.949 311.22 195.123 310.452C196.307 309.684 197.741 309.3 199.427 309.3C200.504 309.3 201.512 309.465 202.451 309.796C203.4 310.116 204.269 310.601 205.059 311.252L203.747 313.044C203.032 312.543 202.312 312.169 201.587 311.924C200.872 311.668 200.141 311.54 199.395 311.54C197.944 311.54 196.749 312.084 195.811 313.172C194.872 314.26 194.403 315.919 194.403 318.148C194.403 319.641 194.616 320.863 195.043 321.812C195.48 322.751 196.072 323.444 196.819 323.892C197.576 324.329 198.435 324.548 199.395 324.548ZM213.654 302.612V311.956C214.315 311.071 215.126 310.409 216.086 309.972C217.057 309.524 218.038 309.3 219.03 309.3C220.673 309.3 221.873 309.737 222.63 310.612C223.387 311.487 223.766 312.703 223.766 314.26V326.5H221.078V314.324C221.078 313.311 220.843 312.575 220.374 312.116C219.905 311.647 219.169 311.412 218.166 311.412C217.526 311.412 216.918 311.556 216.342 311.844C215.766 312.132 215.249 312.489 214.79 312.916C214.331 313.343 213.953 313.78 213.654 314.228V326.5H210.966V302.9L213.654 302.612ZM236.57 309.3C238.159 309.3 239.487 309.663 240.554 310.388C241.631 311.103 242.436 312.116 242.97 313.428C243.514 314.74 243.786 316.287 243.786 318.068C243.786 319.785 243.508 321.305 242.954 322.628C242.399 323.951 241.583 324.991 240.506 325.748C239.439 326.495 238.116 326.868 236.538 326.868C234.959 326.868 233.631 326.505 232.554 325.78C231.476 325.055 230.66 324.036 230.106 322.724C229.562 321.401 229.289 319.86 229.289 318.1C229.289 316.361 229.567 314.831 230.122 313.508C230.676 312.185 231.492 311.156 232.57 310.42C233.658 309.673 234.991 309.3 236.57 309.3ZM236.57 311.492C235.119 311.492 234.02 312.031 233.274 313.108C232.538 314.175 232.17 315.839 232.17 318.1C232.17 320.319 232.532 321.967 233.258 323.044C233.994 324.121 235.087 324.66 236.538 324.66C237.988 324.66 239.076 324.121 239.802 323.044C240.538 321.967 240.906 320.308 240.906 318.068C240.906 315.828 240.543 314.175 239.818 313.108C239.092 312.031 238.01 311.492 236.57 311.492ZM255.757 309.3C257.346 309.3 258.674 309.663 259.741 310.388C260.818 311.103 261.624 312.116 262.157 313.428C262.701 314.74 262.973 316.287 262.973 318.068C262.973 319.785 262.696 321.305 262.141 322.628C261.586 323.951 260.77 324.991 259.693 325.748C258.626 326.495 257.304 326.868 255.725 326.868C254.146 326.868 252.818 326.505 251.741 325.78C250.664 325.055 249.848 324.036 249.293 322.724C248.749 321.401 248.477 319.86 248.477 318.1C248.477 316.361 248.754 314.831 249.309 313.508C249.864 312.185 250.68 311.156 251.757 310.42C252.845 309.673 254.178 309.3 255.757 309.3ZM255.757 311.492C254.306 311.492 253.208 312.031 252.461 313.108C251.725 314.175 251.357 315.839 251.357 318.1C251.357 320.319 251.72 321.967 252.445 323.044C253.181 324.121 254.274 324.66 255.725 324.66C257.176 324.66 258.264 324.121 258.989 323.044C259.725 321.967 260.093 320.308 260.093 318.068C260.093 315.828 259.73 314.175 259.005 313.108C258.28 312.031 257.197 311.492 255.757 311.492ZM275.089 302.868V322.34C275.089 323.172 275.345 323.764 275.857 324.116C276.379 324.457 277.051 324.628 277.873 324.628C278.385 324.628 278.87 324.575 279.329 324.468C279.787 324.361 280.246 324.217 280.705 324.036L281.425 326.004C280.966 326.228 280.395 326.425 279.713 326.596C279.041 326.777 278.278 326.868 277.425 326.868C275.931 326.868 274.721 326.457 273.793 325.636C272.865 324.804 272.401 323.657 272.401 322.196V304.996H267.233V302.868H275.089ZM371.026 428.868V448.34C371.026 449.172 371.282 449.764 371.794 450.116C372.317 450.457 372.989 450.628 373.81 450.628C374.322 450.628 374.807 450.575 375.266 450.468C375.725 450.361 376.183 450.217 376.642 450.036L377.362 452.004C376.903 452.228 376.333 452.425 375.65 452.596C374.978 452.777 374.215 452.868 373.362 452.868C371.869 452.868 370.658 452.457 369.73 451.636C368.802 450.804 368.338 449.657 368.338 448.196V430.996H363.17V428.868H371.026ZM390.07 435.3C391.659 435.3 392.987 435.663 394.054 436.388C395.131 437.103 395.936 438.116 396.47 439.428C397.014 440.74 397.286 442.287 397.286 444.068C397.286 445.785 397.008 447.305 396.454 448.628C395.899 449.951 395.083 450.991 394.006 451.748C392.939 452.495 391.616 452.868 390.038 452.868C388.459 452.868 387.131 452.505 386.054 451.78C384.976 451.055 384.16 450.036 383.606 448.724C383.062 447.401 382.789 445.86 382.789 444.1C382.789 442.361 383.067 440.831 383.622 439.508C384.176 438.185 384.992 437.156 386.07 436.42C387.158 435.673 388.491 435.3 390.07 435.3ZM390.07 437.492C388.619 437.492 387.52 438.031 386.774 439.108C386.038 440.175 385.67 441.839 385.67 444.1C385.67 446.319 386.032 447.967 386.758 449.044C387.494 450.121 388.587 450.66 390.038 450.66C391.488 450.66 392.576 450.121 393.302 449.044C394.038 447.967 394.406 446.308 394.406 444.068C394.406 441.828 394.043 440.175 393.318 439.108C392.592 438.031 391.51 437.492 390.07 437.492ZM416.537 433.86L417.369 436.388C416.654 436.612 415.892 436.751 415.081 436.804C414.27 436.857 413.39 436.884 412.441 436.884C413.412 437.332 414.142 437.913 414.633 438.628C415.124 439.332 415.369 440.164 415.369 441.124C415.369 442.233 415.118 443.22 414.617 444.084C414.116 444.948 413.39 445.625 412.441 446.116C411.502 446.607 410.366 446.852 409.033 446.852C408.468 446.852 407.993 446.825 407.609 446.772C407.236 446.719 406.873 446.639 406.521 446.532C406.265 446.703 406.052 446.937 405.881 447.236C405.721 447.535 405.641 447.844 405.641 448.164C405.641 448.569 405.801 448.905 406.121 449.172C406.441 449.439 407.033 449.572 407.897 449.572H410.937C412.068 449.572 413.081 449.775 413.977 450.18C414.884 450.585 415.593 451.129 416.105 451.812C416.628 452.495 416.889 453.273 416.889 454.148C416.889 455.801 416.185 457.071 414.777 457.956C413.38 458.841 411.401 459.284 408.841 459.284C407.049 459.284 405.636 459.097 404.601 458.724C403.566 458.361 402.825 457.801 402.377 457.044C401.94 456.297 401.721 455.353 401.721 454.212H404.153C404.153 454.863 404.281 455.401 404.537 455.828C404.793 456.255 405.257 456.569 405.929 456.772C406.601 456.985 407.566 457.092 408.825 457.092C410.062 457.092 411.07 456.985 411.849 456.772C412.638 456.569 413.22 456.26 413.593 455.844C413.977 455.439 414.169 454.932 414.169 454.324C414.169 453.524 413.806 452.921 413.081 452.516C412.356 452.111 411.449 451.908 410.361 451.908H407.353C405.902 451.908 404.83 451.588 404.137 450.948C403.454 450.308 403.113 449.572 403.113 448.74C403.113 448.196 403.268 447.668 403.577 447.156C403.897 446.644 404.361 446.191 404.969 445.796C403.998 445.284 403.284 444.649 402.825 443.892C402.366 443.135 402.137 442.217 402.137 441.14C402.137 439.999 402.42 438.991 402.985 438.116C403.55 437.231 404.34 436.537 405.353 436.036C406.366 435.535 407.534 435.284 408.857 435.284C410.276 435.273 411.428 435.215 412.313 435.108C413.198 434.991 413.956 434.825 414.585 434.612C415.225 434.399 415.876 434.148 416.537 433.86ZM408.857 437.252C407.502 437.252 406.5 437.62 405.849 438.356C405.209 439.081 404.889 440.009 404.889 441.14C404.889 442.281 405.22 443.22 405.881 443.956C406.542 444.692 407.556 445.06 408.921 445.06C410.116 445.06 411.022 444.713 411.641 444.02C412.27 443.327 412.585 442.361 412.585 441.124C412.585 439.855 412.27 438.895 411.641 438.244C411.022 437.583 410.094 437.252 408.857 437.252Z" fill="#3E2A8E"/>
<path d="M309.016 361.028C309.069 362.329 309.32 363.396 309.768 364.228C310.216 365.049 310.808 365.657 311.544 366.052C312.28 366.436 313.08 366.628 313.944 366.628C314.808 366.628 315.586 366.5 316.28 366.244C316.984 365.988 317.704 365.609 318.44 365.108L319.704 366.884C318.914 367.503 318.013 367.988 317 368.34C315.997 368.692 314.968 368.868 313.912 368.868C312.28 368.868 310.888 368.5 309.736 367.764C308.584 367.028 307.704 366.004 307.096 364.692C306.498 363.369 306.2 361.839 306.2 360.1C306.2 358.393 306.504 356.879 307.112 355.556C307.72 354.233 308.573 353.193 309.672 352.436C310.77 351.679 312.066 351.3 313.56 351.3C314.978 351.3 316.2 351.636 317.224 352.308C318.248 352.969 319.032 353.919 319.576 355.156C320.13 356.383 320.408 357.849 320.408 359.556C320.408 359.844 320.402 360.116 320.392 360.372C320.381 360.617 320.365 360.836 320.344 361.028H309.016ZM313.592 353.508C312.344 353.508 311.298 353.951 310.456 354.836C309.624 355.721 309.149 357.092 309.032 358.948H317.816C317.784 357.145 317.389 355.791 316.632 354.884C315.874 353.967 314.861 353.508 313.592 353.508ZM326.251 368.5V366.436H328.875V353.716H326.251V351.652H330.923L331.419 355.636C332.07 354.249 332.859 353.177 333.787 352.42C334.715 351.663 335.942 351.284 337.467 351.284C337.936 351.284 338.352 351.321 338.715 351.396C339.088 351.46 339.467 351.545 339.851 351.652L339.067 354.052C338.715 353.956 338.395 353.887 338.107 353.844C337.819 353.791 337.488 353.764 337.115 353.764C335.824 353.764 334.715 354.223 333.787 355.14C332.859 356.057 332.118 357.444 331.563 359.3V366.436H334.987V368.5H326.251ZM337.259 357.348V353.684L337.531 351.652H339.851L339.467 357.348H337.259ZM251.453 403.028C251.506 404.329 251.757 405.396 252.205 406.228C252.653 407.049 253.245 407.657 253.981 408.052C254.717 408.436 255.517 408.628 256.381 408.628C257.245 408.628 258.024 408.5 258.717 408.244C259.421 407.988 260.141 407.609 260.877 407.108L262.141 408.884C261.352 409.503 260.45 409.988 259.437 410.34C258.434 410.692 257.405 410.868 256.349 410.868C254.717 410.868 253.325 410.5 252.173 409.764C251.021 409.028 250.141 408.004 249.533 406.692C248.936 405.369 248.637 403.839 248.637 402.1C248.637 400.393 248.941 398.879 249.549 397.556C250.157 396.233 251.01 395.193 252.109 394.436C253.208 393.679 254.504 393.3 255.997 393.3C257.416 393.3 258.637 393.636 259.661 394.308C260.685 394.969 261.469 395.919 262.013 397.156C262.568 398.383 262.845 399.849 262.845 401.556C262.845 401.844 262.84 402.116 262.829 402.372C262.818 402.617 262.802 402.836 262.781 403.028H251.453ZM256.029 395.508C254.781 395.508 253.736 395.951 252.893 396.836C252.061 397.721 251.586 399.092 251.469 400.948H260.253C260.221 399.145 259.826 397.791 259.069 396.884C258.312 395.967 257.298 395.508 256.029 395.508ZM268.689 410.5V408.436H271.313V395.716H268.689V393.652H273.361L273.857 397.636C274.507 396.249 275.297 395.177 276.225 394.42C277.153 393.663 278.379 393.284 279.905 393.284C280.374 393.284 280.79 393.321 281.153 393.396C281.526 393.46 281.905 393.545 282.289 393.652L281.505 396.052C281.153 395.956 280.833 395.887 280.545 395.844C280.257 395.791 279.926 395.764 279.553 395.764C278.262 395.764 277.153 396.223 276.225 397.14C275.297 398.057 274.555 399.444 274.001 401.3V408.436H277.425V410.5H268.689ZM279.697 399.348V395.684L279.969 393.652H282.289L281.905 399.348H279.697ZM364.626 410.5V408.436H367.25V395.716H364.626V393.652H369.298L369.794 397.636C370.445 396.249 371.234 395.177 372.162 394.42C373.09 393.663 374.317 393.284 375.842 393.284C376.311 393.284 376.727 393.321 377.09 393.396C377.463 393.46 377.842 393.545 378.226 393.652L377.442 396.052C377.09 395.956 376.77 395.887 376.482 395.844C376.194 395.791 375.863 395.764 375.49 395.764C374.199 395.764 373.09 396.223 372.162 397.14C371.234 398.057 370.493 399.444 369.938 401.3V408.436H373.362V410.5H364.626ZM375.634 399.348V395.684L375.906 393.652H378.226L377.842 399.348H375.634ZM397.67 393.652L391.75 410.612C391.355 411.753 390.854 412.799 390.246 413.748C389.648 414.697 388.864 415.481 387.894 416.1C386.934 416.729 385.712 417.119 384.23 417.268L383.814 415.124C384.976 414.932 385.894 414.639 386.566 414.244C387.238 413.849 387.766 413.343 388.15 412.724C388.544 412.105 388.891 411.364 389.19 410.5H388.294L382.406 393.652H385.286L390.118 408.452L394.886 393.652H397.67ZM404.953 403.028C405.006 404.329 405.257 405.396 405.705 406.228C406.153 407.049 406.745 407.657 407.481 408.052C408.217 408.436 409.017 408.628 409.881 408.628C410.745 408.628 411.524 408.5 412.217 408.244C412.921 407.988 413.641 407.609 414.377 407.108L415.641 408.884C414.852 409.503 413.95 409.988 412.937 410.34C411.934 410.692 410.905 410.868 409.849 410.868C408.217 410.868 406.825 410.5 405.673 409.764C404.521 409.028 403.641 408.004 403.033 406.692C402.436 405.369 402.137 403.839 402.137 402.1C402.137 400.393 402.441 398.879 403.049 397.556C403.657 396.233 404.51 395.193 405.609 394.436C406.708 393.679 408.004 393.3 409.497 393.3C410.916 393.3 412.137 393.636 413.161 394.308C414.185 394.969 414.969 395.919 415.513 397.156C416.068 398.383 416.345 399.849 416.345 401.556C416.345 401.844 416.34 402.116 416.329 402.372C416.318 402.617 416.302 402.836 416.281 403.028H404.953ZM409.529 395.508C408.281 395.508 407.236 395.951 406.393 396.836C405.561 397.721 405.086 399.092 404.969 400.948H413.753C413.721 399.145 413.326 397.791 412.569 396.884C411.812 395.967 410.798 395.508 409.529 395.508Z" fill="#2B56AA"/>
<path d="M218.582 450.548C219.425 450.548 220.209 450.409 220.934 450.132C221.67 449.855 222.347 449.503 222.966 449.076L224.278 450.836C223.542 451.465 222.657 451.961 221.622 452.324C220.587 452.687 219.574 452.868 218.582 452.868C216.907 452.868 215.478 452.511 214.294 451.796C213.121 451.071 212.225 450.057 211.606 448.756C210.987 447.444 210.678 445.908 210.678 444.148C210.678 442.463 210.987 440.953 211.606 439.62C212.235 438.276 213.137 437.22 214.31 436.452C215.494 435.684 216.929 435.3 218.614 435.3C219.691 435.3 220.699 435.465 221.638 435.796C222.587 436.116 223.457 436.601 224.246 437.252L222.934 439.044C222.219 438.543 221.499 438.169 220.774 437.924C220.059 437.668 219.329 437.54 218.582 437.54C217.131 437.54 215.937 438.084 214.998 439.172C214.059 440.26 213.59 441.919 213.59 444.148C213.59 445.641 213.803 446.863 214.23 447.812C214.667 448.751 215.259 449.444 216.006 449.892C216.763 450.329 217.622 450.548 218.582 450.548ZM236.57 435.3C238.159 435.3 239.487 435.663 240.554 436.388C241.631 437.103 242.436 438.116 242.97 439.428C243.514 440.74 243.786 442.287 243.786 444.068C243.786 445.785 243.508 447.305 242.954 448.628C242.399 449.951 241.583 450.991 240.506 451.748C239.439 452.495 238.116 452.868 236.538 452.868C234.959 452.868 233.631 452.505 232.554 451.78C231.476 451.055 230.66 450.036 230.106 448.724C229.562 447.401 229.289 445.86 229.289 444.1C229.289 442.361 229.567 440.831 230.122 439.508C230.676 438.185 231.492 437.156 232.57 436.42C233.658 435.673 234.991 435.3 236.57 435.3ZM236.57 437.492C235.119 437.492 234.02 438.031 233.274 439.108C232.538 440.175 232.17 441.839 232.17 444.1C232.17 446.319 232.532 447.967 233.258 449.044C233.994 450.121 235.087 450.66 236.538 450.66C237.988 450.66 239.076 450.121 239.802 449.044C240.538 447.967 240.906 446.308 240.906 444.068C240.906 441.828 240.543 440.175 239.818 439.108C239.092 438.031 238.01 437.492 236.57 437.492ZM249.341 452.5V435.652H251.629L251.837 437.988C252.52 437.124 253.373 436.463 254.397 436.004C255.432 435.535 256.434 435.3 257.405 435.3C259.058 435.3 260.258 435.737 261.005 436.612C261.762 437.487 262.141 438.703 262.141 440.26V452.5H259.453V442.244C259.453 441.092 259.389 440.164 259.261 439.46C259.133 438.745 258.866 438.228 258.461 437.908C258.056 437.577 257.426 437.412 256.573 437.412C255.912 437.412 255.288 437.556 254.701 437.844C254.125 438.132 253.608 438.495 253.149 438.932C252.701 439.359 252.328 439.791 252.029 440.228V452.5H249.341ZM274.257 450.644C275.547 450.644 276.566 450.404 277.313 449.924C278.07 449.433 278.449 448.783 278.449 447.972C278.449 447.46 278.353 447.017 278.161 446.644C277.979 446.271 277.601 445.935 277.025 445.636C276.449 445.337 275.563 445.039 274.369 444.74C273.206 444.452 272.193 444.121 271.329 443.748C270.475 443.364 269.809 442.868 269.329 442.26C268.859 441.652 268.625 440.863 268.625 439.892C268.625 438.943 268.891 438.127 269.424 437.444C269.969 436.751 270.721 436.223 271.681 435.86C272.641 435.487 273.755 435.3 275.025 435.3C276.379 435.3 277.558 435.481 278.561 435.844C279.574 436.196 280.433 436.633 281.137 437.156L279.953 438.98C279.313 438.543 278.609 438.185 277.841 437.908C277.073 437.62 276.145 437.476 275.057 437.476C273.734 437.476 272.795 437.684 272.241 438.1C271.686 438.505 271.409 439.033 271.409 439.684C271.409 440.175 271.542 440.585 271.809 440.916C272.086 441.236 272.55 441.529 273.201 441.796C273.851 442.052 274.747 442.335 275.889 442.644C276.987 442.932 277.942 443.279 278.753 443.684C279.574 444.089 280.214 444.623 280.673 445.284C281.131 445.945 281.361 446.799 281.361 447.844C281.361 449.039 281.019 450.009 280.337 450.756C279.654 451.492 278.769 452.031 277.681 452.372C276.603 452.703 275.462 452.868 274.257 452.868C272.731 452.868 271.43 452.649 270.353 452.212C269.286 451.764 268.39 451.225 267.664 450.596L269.201 448.82C269.862 449.364 270.619 449.807 271.473 450.148C272.337 450.479 273.265 450.644 274.257 450.644ZM294.132 435.3C295.721 435.3 297.049 435.663 298.116 436.388C299.193 437.103 299.999 438.116 300.532 439.428C301.076 440.74 301.348 442.287 301.348 444.068C301.348 445.785 301.071 447.305 300.516 448.628C299.961 449.951 299.145 450.991 298.068 451.748C297.001 452.495 295.679 452.868 294.1 452.868C292.521 452.868 291.193 452.505 290.116 451.78C289.039 451.055 288.223 450.036 287.668 448.724C287.124 447.401 286.852 445.86 286.852 444.1C286.852 442.361 287.129 440.831 287.684 439.508C288.239 438.185 289.055 437.156 290.132 436.42C291.22 435.673 292.553 435.3 294.132 435.3ZM294.132 437.492C292.681 437.492 291.583 438.031 290.836 439.108C290.1 440.175 289.732 441.839 289.732 444.1C289.732 446.319 290.095 447.967 290.82 449.044C291.556 450.121 292.649 450.66 294.1 450.66C295.551 450.66 296.639 450.121 297.364 449.044C298.1 447.967 298.468 446.308 298.468 444.068C298.468 441.828 298.105 440.175 297.38 439.108C296.655 438.031 295.572 437.492 294.132 437.492ZM313.464 428.868V448.34C313.464 449.172 313.72 449.764 314.232 450.116C314.754 450.457 315.426 450.628 316.248 450.628C316.76 450.628 317.245 450.575 317.704 450.468C318.162 450.361 318.621 450.217 319.08 450.036L319.8 452.004C319.341 452.228 318.77 452.425 318.088 452.596C317.416 452.777 316.653 452.868 315.8 452.868C314.306 452.868 313.096 452.457 312.168 451.636C311.24 450.804 310.776 449.657 310.776 448.196V430.996H305.608V428.868H313.464ZM328.203 445.028C328.256 446.329 328.507 447.396 328.955 448.228C329.403 449.049 329.995 449.657 330.731 450.052C331.467 450.436 332.267 450.628 333.131 450.628C333.995 450.628 334.774 450.5 335.467 450.244C336.171 449.988 336.891 449.609 337.627 449.108L338.891 450.884C338.102 451.503 337.2 451.988 336.187 452.34C335.184 452.692 334.155 452.868 333.099 452.868C331.467 452.868 330.075 452.5 328.923 451.764C327.771 451.028 326.891 450.004 326.283 448.692C325.686 447.369 325.387 445.839 325.387 444.1C325.387 442.393 325.691 440.879 326.299 439.556C326.907 438.233 327.76 437.193 328.859 436.436C329.958 435.679 331.254 435.3 332.747 435.3C334.166 435.3 335.387 435.636 336.411 436.308C337.435 436.969 338.219 437.919 338.763 439.156C339.318 440.383 339.595 441.849 339.595 443.556C339.595 443.844 339.59 444.116 339.579 444.372C339.568 444.617 339.552 444.836 339.531 445.028H328.203ZM332.779 437.508C331.531 437.508 330.486 437.951 329.643 438.836C328.811 439.721 328.336 441.092 328.219 442.948H337.003C336.971 441.145 336.576 439.791 335.819 438.884C335.062 437.967 334.048 437.508 332.779 437.508Z" fill="#A52BDF"/>
<path d="M470.948 452.5V442.052H462.628V452.5H459.86V430.468H462.628V439.78H470.948V430.468H473.715V452.5H470.948ZM486.007 435.3C487.596 435.3 488.924 435.663 489.991 436.388C491.068 437.103 491.874 438.116 492.407 439.428C492.951 440.74 493.223 442.287 493.223 444.068C493.223 445.785 492.946 447.305 492.391 448.628C491.836 449.951 491.02 450.991 489.943 451.748C488.876 452.495 487.554 452.868 485.975 452.868C484.396 452.868 483.068 452.505 481.991 451.78C480.914 451.055 480.098 450.036 479.543 448.724C478.999 447.401 478.727 445.86 478.727 444.1C478.727 442.361 479.004 440.831 479.559 439.508C480.114 438.185 480.93 437.156 482.007 436.42C483.095 435.673 484.428 435.3 486.007 435.3ZM486.007 437.492C484.556 437.492 483.458 438.031 482.711 439.108C481.975 440.175 481.607 441.839 481.607 444.1C481.607 446.319 481.97 447.967 482.695 449.044C483.431 450.121 484.524 450.66 485.975 450.66C487.426 450.66 488.514 450.121 489.239 449.044C489.975 447.967 490.343 446.308 490.343 444.068C490.343 441.828 489.98 440.175 489.255 439.108C488.53 438.031 487.447 437.492 486.007 437.492ZM505.339 428.868V448.34C505.339 449.172 505.595 449.764 506.107 450.116C506.629 450.457 507.301 450.628 508.123 450.628C508.635 450.628 509.12 450.575 509.579 450.468C510.037 450.361 510.496 450.217 510.955 450.036L511.675 452.004C511.216 452.228 510.645 452.425 509.963 452.596C509.291 452.777 508.528 452.868 507.675 452.868C506.181 452.868 504.971 452.457 504.043 451.636C503.115 450.804 502.651 449.657 502.651 448.196V430.996H497.483V428.868H505.339ZM528.046 428.532L530.734 428.868V452.5H528.382L528.126 450.276C527.497 451.172 526.771 451.828 525.95 452.244C525.139 452.66 524.27 452.868 523.342 452.868C521.881 452.868 520.675 452.5 519.726 451.764C518.777 451.028 518.073 450.004 517.614 448.692C517.155 447.369 516.926 445.839 516.926 444.1C516.926 442.415 517.187 440.911 517.71 439.588C518.233 438.255 518.985 437.209 519.966 436.452C520.958 435.684 522.147 435.3 523.534 435.3C524.505 435.3 525.358 435.471 526.094 435.812C526.83 436.143 527.481 436.633 528.046 437.284V428.532ZM524.238 437.46C522.83 437.46 521.747 438.009 520.99 439.108C520.233 440.207 519.854 441.871 519.854 444.1C519.854 445.551 520.009 446.767 520.318 447.748C520.627 448.729 521.081 449.465 521.678 449.956C522.286 450.447 523.027 450.692 523.902 450.692C524.862 450.692 525.678 450.42 526.35 449.876C527.033 449.332 527.598 448.719 528.046 448.036V439.62C527.587 438.937 527.033 438.409 526.382 438.036C525.731 437.652 525.017 437.46 524.238 437.46ZM539.266 445.028C539.319 446.329 539.57 447.396 540.018 448.228C540.466 449.049 541.058 449.657 541.794 450.052C542.53 450.436 543.33 450.628 544.194 450.628C545.058 450.628 545.836 450.5 546.53 450.244C547.234 449.988 547.954 449.609 548.69 449.108L549.954 450.884C549.164 451.503 548.263 451.988 547.25 452.34C546.247 452.692 545.218 452.868 544.162 452.868C542.53 452.868 541.138 452.5 539.986 451.764C538.834 451.028 537.954 450.004 537.346 448.692C536.748 447.369 536.45 445.839 536.45 444.1C536.45 442.393 536.754 440.879 537.362 439.556C537.97 438.233 538.823 437.193 539.922 436.436C541.02 435.679 542.316 435.3 543.81 435.3C545.228 435.3 546.45 435.636 547.474 436.308C548.498 436.969 549.282 437.919 549.826 439.156C550.38 440.383 550.658 441.849 550.658 443.556C550.658 443.844 550.652 444.116 550.642 444.372C550.631 444.617 550.615 444.836 550.594 445.028H539.266ZM543.842 437.508C542.594 437.508 541.548 437.951 540.706 438.836C539.874 439.721 539.399 441.092 539.282 442.948H548.066C548.034 441.145 547.639 439.791 546.882 438.884C546.124 437.967 545.111 437.508 543.842 437.508ZM556.341 452.5V435.652H558.629L558.837 437.988C559.52 437.124 560.373 436.463 561.397 436.004C562.432 435.535 563.434 435.3 564.405 435.3C566.058 435.3 567.258 435.737 568.005 436.612C568.762 437.487 569.141 438.703 569.141 440.26V452.5H566.453V442.244C566.453 441.092 566.389 440.164 566.261 439.46C566.133 438.745 565.866 438.228 565.461 437.908C565.056 437.577 564.426 437.412 563.573 437.412C562.912 437.412 562.288 437.556 561.701 437.844C561.125 438.132 560.608 438.495 560.149 438.932C559.701 439.359 559.328 439.791 559.029 440.228V452.5H556.341Z" fill="#178034"/>
</svg>
